<svg width="34" height="34" viewBox="0 0 34 34" fill="none" xmlns="http://www.w3.org/2000/svg">
<path d="M12.0422 24.3623H7.38384V9.42512H12.0422V24.3623ZM9.70431 7.37321C8.20386 7.37321 7 6.17337 7 4.67791C7 3.18245 8.2213 2 9.70431 2C11.1873 2 12.4086 3.19984 12.4086 4.6953C12.4086 6.19076 11.2048 7.37321 9.70431 7.37321ZM29.4894 24.3623H24.831V17.0937C24.831 15.3548 24.7961 13.129 22.4059 13.129C19.9807 13.129 19.6143 15.0244 19.6143 16.972V24.3623H14.9559V9.42512H19.4224V11.4596H19.4922C20.1203 10.2772 21.6382 9.04256 23.9063 9.04256C28.6171 9.04256 29.4894 12.1378 29.4894 16.1547V24.3623Z" fill="#022336"/>
</svg>
