<svg width="162" height="19" viewBox="0 0 162 19" fill="none" xmlns="http://www.w3.org/2000/svg">
<mask id="path-1-outside-1_507_812" maskUnits="userSpaceOnUse" x="0" y="0" width="162" height="19" fill="black">
<rect fill="white" width="162" height="19"/>
<path d="M7.67426 16.2581C8.96832 16.2581 10.1349 15.8816 11.0741 15.181L11.4035 15.5313C10.7192 16.3829 9.14576 18.3872 6.45566 18.3872C3.25874 18.3872 1 15.9823 1 12.5757C1 9.41885 3.13127 6.61328 6.43016 6.61328C9.2977 6.61328 11.0486 8.66788 10.7947 11.6989H3.30871V11.8489C3.30871 14.4793 4.85669 16.2581 7.67426 16.2581ZM8.49006 10.6963C8.56654 8.89337 7.80479 7.61591 6.3078 7.61591C4.86077 7.61591 3.74516 8.81787 3.41477 10.6963H8.49006Z"/>
<path d="M18.4255 6.61328C20.4813 6.61328 21.8008 7.39043 21.8008 8.71822C21.8011 8.93205 21.7586 9.14384 21.6759 9.34145C21.5931 9.53906 21.4716 9.7186 21.3185 9.86981C21.1653 10.021 20.9834 10.1409 20.7832 10.2226C20.5831 10.3043 20.3685 10.3462 20.1519 10.346C19.0852 10.346 18.5019 9.51952 18.5019 8.71822C18.4999 8.52343 18.5369 8.33016 18.6109 8.1496C18.685 7.96903 18.7945 7.80475 18.9333 7.66625C18.7096 7.60954 18.4788 7.5848 18.248 7.59276C16.1168 7.59276 14.7462 9.52153 14.7462 11.9214C14.7462 14.577 16.4217 16.2501 19.1107 16.2501C20.4048 16.2501 21.5724 15.8736 22.5116 15.1729L22.841 15.5233C22.1557 16.3749 20.5833 18.3792 17.8932 18.3792C14.6962 18.3792 12.4375 15.9742 12.4375 12.5677C12.4355 9.14403 14.8992 6.61328 18.4255 6.61328Z"/>
<path d="M25.1514 14.5793V10.5959C25.1514 9.46847 24.5171 8.61683 23.375 8.46684V7.96351C24.7172 7.65888 26.0324 7.24853 27.3082 6.73639L27.4346 6.81088V14.0005C27.4346 15.6786 28.1709 16.6057 29.4649 16.6057C30.5867 16.6057 31.4953 15.8789 32.256 14.7273V10.5939C32.256 9.46645 31.6217 8.61483 30.4796 8.46483V7.9615C31.8218 7.65703 33.1371 7.24667 34.4128 6.73438L34.5402 6.80887V14.4243C34.5402 15.5517 35.1745 16.4034 36.3166 16.5534V17.0567C34.9744 17.3612 33.6591 17.7715 32.3835 18.2838L32.256 18.2093V16.1044H32.1295C31.2923 17.7835 29.7943 18.3845 28.5003 18.3845C26.5209 18.3865 25.1514 16.8081 25.1514 14.5793Z"/>
<path d="M37.5781 17.6352C38.7202 17.4852 39.3545 16.6286 39.3545 15.5061V10.5967C39.3545 9.46919 38.7202 8.61755 37.5781 8.46756V7.96423C38.9203 7.6596 40.2356 7.24925 41.5113 6.73711L41.6377 6.8116V15.5041C41.6377 16.6316 42.2731 17.4832 43.6681 17.6332V18.1366H37.5781V17.6352ZM43.5692 8.24207C43.5688 8.02806 43.6112 7.81609 43.6939 7.6183C43.7767 7.4205 43.8982 7.24079 44.0515 7.08947C44.2048 6.93814 44.3869 6.81817 44.5872 6.73646C44.7876 6.65475 45.0023 6.61289 45.2191 6.61329C45.4361 6.6125 45.6511 6.65406 45.8518 6.73561C46.0525 6.81716 46.2348 6.93707 46.3883 7.08845C46.5419 7.23983 46.6636 7.41969 46.7464 7.61767C46.8293 7.81565 46.8717 8.02785 46.8711 8.24207C46.8717 8.45598 46.8294 8.6679 46.7467 8.86563C46.664 9.06336 46.5426 9.243 46.3894 9.39426C46.2361 9.54552 46.0541 9.66541 45.8538 9.74702C45.6535 9.82864 45.4389 9.87037 45.2222 9.86984C45.0053 9.87064 44.7903 9.82911 44.5897 9.74762C44.3892 9.66614 44.2069 9.54632 44.0533 9.39505C43.8998 9.24377 43.7781 9.06404 43.6952 8.86617C43.6123 8.6683 43.5698 8.45619 43.5702 8.24207H43.5692Z"/>
<path d="M54.4321 16.2581C55.7261 16.2581 56.8927 15.8816 57.8319 15.181L58.1623 15.5313C57.477 16.3829 55.9036 18.3872 53.2135 18.3872C50.0166 18.3872 47.7578 15.9823 47.7578 12.5757C47.7578 9.41885 49.8901 6.61328 53.188 6.61328C56.0555 6.61328 57.8064 8.66788 57.5525 11.6989H50.0675V11.8489C50.0675 14.4793 51.6155 16.2581 54.4321 16.2581ZM55.2479 10.6963C55.3243 8.89337 54.5626 7.61591 53.0656 7.61591C51.6196 7.61591 50.503 8.81787 50.1726 10.6963H55.2479Z"/>
<path d="M59.4688 12.9269C59.4688 9.2949 62.0314 6.61416 65.2028 6.61416C66.1273 6.60119 67.0357 6.85369 67.8174 7.34097V4.86154C67.8174 3.73408 67.1821 2.88245 66.041 2.73146V2.22812C67.3831 1.92273 68.6984 1.51206 69.9742 1L70.1007 1.0755V14.4269C70.1007 15.5543 70.7349 16.406 71.8771 16.556V17.0593C70.5349 17.3639 69.2196 17.7743 67.9439 18.2864L67.8174 18.2119V16.107H67.6869C66.9731 17.6603 65.5046 18.3871 64.0586 18.3871C61.6 18.3861 59.4688 16.2318 59.4688 12.9269ZM64.9499 16.6093C65.9646 16.6093 67.0302 16.0587 67.8174 14.7309V8.38891C67.2331 7.88558 66.295 7.61276 65.4822 7.61276C63.6304 7.61276 61.7265 9.16605 61.7265 12.3219C61.7265 15.054 63.148 16.6073 64.9499 16.6073V16.6093Z"/>
<path d="M80.8624 15.0041V4.73618C80.8624 3.48389 79.9232 2.50643 78.5781 2.35644V1.60547H91.5198V6.61462H91.0099C90.6805 3.93489 89.6648 2.60709 87.5591 2.60709H83.3995V9.52086L86.47 9.49569C88.1954 9.49569 89.1856 8.61889 89.312 6.99112H89.8219V13.0029H89.312C89.1856 11.3741 88.1903 10.4973 86.47 10.4973L83.3995 10.5225V14.7565C83.3995 16.2343 84.3387 17.3114 85.9366 17.3618V18.1379H78.5781V17.3557C79.9211 17.2329 80.8624 16.2313 80.8624 15.0041Z"/>
<path d="M94.4951 15.5054V10.5959C94.4951 9.46841 93.8609 8.61677 92.7188 8.46678V7.96344C94.061 7.65897 95.3762 7.24862 96.6519 6.73633L96.7794 6.81082V15.5033C96.7794 16.6308 97.4137 17.4825 98.5558 17.6324V18.1358H92.7188V17.6324C93.8609 17.4845 94.4951 16.6328 94.4951 15.5054Z"/>
<path d="M108.593 15.5053V10.9964C108.593 9.3183 107.857 8.39116 106.563 8.39116C105.446 8.39116 104.532 9.11798 103.772 10.2696V15.5042C103.772 16.6317 104.406 17.4833 105.294 17.6333V18.1367H99.7109V17.6333C100.853 17.4833 101.487 16.6267 101.487 15.5042V10.5947C101.487 9.46729 100.853 8.61566 99.7109 8.46567V7.96234C101.053 7.65771 102.368 7.24735 103.644 6.73521L103.772 6.8097V8.88947H103.898C104.735 7.21136 106.232 6.60938 107.527 6.60938C109.506 6.60938 110.876 8.18782 110.876 10.4176V15.5022C110.876 16.7545 111.333 17.281 112.653 17.6313V18.1347H107.07V17.6313C108.164 17.284 108.593 16.7575 108.593 15.5053Z"/>
<path d="M113.836 15.4298C113.836 13.801 115.004 12.7491 117.542 11.9971L120.231 11.1918V10.9411C120.231 9.1875 119.445 8.33587 117.871 8.33587C116.603 8.33587 115.587 8.86235 114.496 9.81465L114.166 9.46332C114.852 8.61169 116.501 6.60742 118.988 6.60742C121.119 6.60742 122.515 8.08622 122.515 10.4156V16.2019C122.515 16.7526 122.794 17.0284 123.149 17.0284C123.496 17.016 123.831 16.9029 124.113 16.7032L124.419 17.0787C123.705 17.8841 122.947 18.331 122.034 18.331C121.145 18.331 120.232 17.88 120.232 16.4023V16.1003H120.105C119.392 17.6284 118.201 18.3804 116.832 18.3804C115.004 18.3854 113.836 17.0828 113.836 15.4298ZM117.639 16.5311C118.476 16.5311 119.491 15.9553 120.227 14.7282V12.1209L118.4 12.6967C116.598 13.2735 116.116 14.1252 116.116 14.9517C116.12 15.9301 116.805 16.5311 117.639 16.5311Z"/>
<path d="M134.32 15.5061V10.9973C134.32 9.31918 133.583 8.39205 132.289 8.39205C131.167 8.39205 130.259 9.11886 129.498 10.2705V15.5051C129.498 16.6326 130.132 17.4842 131.021 17.6342V18.1376H125.438V17.6342C126.58 17.4842 127.214 16.6276 127.214 15.5051V10.5956C127.214 9.46817 126.58 8.61654 125.438 8.46655V7.96322C126.78 7.65973 128.095 7.25038 129.371 6.73911L129.498 6.81361V8.89338H129.625C130.462 7.21527 131.96 6.61328 133.254 6.61328C135.233 6.61328 136.603 8.19172 136.603 10.4215V15.5061C136.603 16.7584 137.06 17.2849 138.379 17.6352V18.1386H132.797V17.6352C133.888 17.2849 134.32 16.7584 134.32 15.5061Z"/>
<path d="M145.386 6.61328C147.442 6.61328 148.762 7.39043 148.762 8.71822C148.762 8.93214 148.72 9.144 148.637 9.34168C148.554 9.53935 148.432 9.71895 148.279 9.87016C148.126 10.0214 147.944 10.1413 147.743 10.2229C147.543 10.3046 147.329 10.3464 147.112 10.346C146.046 10.346 145.463 9.51952 145.463 8.71822C145.461 8.52343 145.498 8.33016 145.572 8.1496C145.646 7.96903 145.755 7.80475 145.894 7.66625C145.671 7.60886 145.44 7.58344 145.209 7.59075C143.078 7.59075 141.707 9.51951 141.707 11.9194C141.707 14.575 143.382 16.248 146.072 16.248C147.366 16.248 148.533 15.8716 149.473 15.1709L149.802 15.5212C149.117 16.3729 147.543 18.3771 144.854 18.3771C141.656 18.3771 139.398 15.9722 139.398 12.5657C139.398 9.14403 141.859 6.61328 145.386 6.61328Z"/>
<path d="M157.384 16.2581C158.678 16.2581 159.846 15.8816 160.785 15.181L161.114 15.5313C160.429 16.3829 158.856 18.3872 156.167 18.3872C152.969 18.3872 150.711 15.9823 150.711 12.5757C150.711 9.41885 152.842 6.61328 156.141 6.61328C159.009 6.61328 160.76 8.66788 160.506 11.6989H153.02V11.8489C153.02 14.4793 154.568 16.2581 157.384 16.2581ZM158.2 10.6963C158.276 8.89337 157.516 7.61591 156.018 7.61591C154.572 7.61591 153.455 8.81787 153.126 10.6963H158.2Z"/>
<path d="M96.3894 1.12252C96.1889 1.04098 95.9741 0.999344 95.7573 1.00001C95.5407 0.999743 95.3262 1.04166 95.1261 1.12338C94.926 1.2051 94.7442 1.32501 94.5911 1.47623C94.438 1.62745 94.3166 1.80703 94.234 2.00463C94.1513 2.20224 94.109 2.41398 94.1094 2.62777C94.109 2.84178 94.1514 3.05376 94.2342 3.25156C94.3169 3.44935 94.4384 3.62907 94.5917 3.7804C94.745 3.93172 94.9271 4.05168 95.1274 4.13339C95.3278 4.21511 95.5425 4.25697 95.7593 4.25657C95.976 4.25684 96.1907 4.21487 96.3909 4.1331C96.5912 4.05133 96.7731 3.93134 96.9263 3.78003C97.0794 3.62872 97.2009 3.44906 97.2836 3.25133C97.3663 3.05361 97.4087 2.8417 97.4083 2.62777C97.4087 2.41373 97.3662 2.20172 97.2834 2.00392C97.2005 1.80612 97.0789 1.62643 96.9255 1.47517C96.7721 1.32392 96.5899 1.20407 96.3894 1.12252Z"/>
</mask>
<path d="M7.67426 16.2581C8.96832 16.2581 10.1349 15.8816 11.0741 15.181L11.4035 15.5313C10.7192 16.3829 9.14576 18.3872 6.45566 18.3872C3.25874 18.3872 1 15.9823 1 12.5757C1 9.41885 3.13127 6.61328 6.43016 6.61328C9.2977 6.61328 11.0486 8.66788 10.7947 11.6989H3.30871V11.8489C3.30871 14.4793 4.85669 16.2581 7.67426 16.2581ZM8.49006 10.6963C8.56654 8.89337 7.80479 7.61591 6.3078 7.61591C4.86077 7.61591 3.74516 8.81787 3.41477 10.6963H8.49006Z" fill="white"/>
<path d="M18.4255 6.61328C20.4813 6.61328 21.8008 7.39043 21.8008 8.71822C21.8011 8.93205 21.7586 9.14384 21.6759 9.34145C21.5931 9.53906 21.4716 9.7186 21.3185 9.86981C21.1653 10.021 20.9834 10.1409 20.7832 10.2226C20.5831 10.3043 20.3685 10.3462 20.1519 10.346C19.0852 10.346 18.5019 9.51952 18.5019 8.71822C18.4999 8.52343 18.5369 8.33016 18.6109 8.1496C18.685 7.96903 18.7945 7.80475 18.9333 7.66625C18.7096 7.60954 18.4788 7.5848 18.248 7.59276C16.1168 7.59276 14.7462 9.52153 14.7462 11.9214C14.7462 14.577 16.4217 16.2501 19.1107 16.2501C20.4048 16.2501 21.5724 15.8736 22.5116 15.1729L22.841 15.5233C22.1557 16.3749 20.5833 18.3792 17.8932 18.3792C14.6962 18.3792 12.4375 15.9742 12.4375 12.5677C12.4355 9.14403 14.8992 6.61328 18.4255 6.61328Z" fill="white"/>
<path d="M25.1514 14.5793V10.5959C25.1514 9.46847 24.5171 8.61683 23.375 8.46684V7.96351C24.7172 7.65888 26.0324 7.24853 27.3082 6.73639L27.4346 6.81088V14.0005C27.4346 15.6786 28.1709 16.6057 29.4649 16.6057C30.5867 16.6057 31.4953 15.8789 32.256 14.7273V10.5939C32.256 9.46645 31.6217 8.61483 30.4796 8.46483V7.9615C31.8218 7.65703 33.1371 7.24667 34.4128 6.73438L34.5402 6.80887V14.4243C34.5402 15.5517 35.1745 16.4034 36.3166 16.5534V17.0567C34.9744 17.3612 33.6591 17.7715 32.3835 18.2838L32.256 18.2093V16.1044H32.1295C31.2923 17.7835 29.7943 18.3845 28.5003 18.3845C26.5209 18.3865 25.1514 16.8081 25.1514 14.5793Z" fill="white"/>
<path d="M37.5781 17.6352C38.7202 17.4852 39.3545 16.6286 39.3545 15.5061V10.5967C39.3545 9.46919 38.7202 8.61755 37.5781 8.46756V7.96423C38.9203 7.6596 40.2356 7.24925 41.5113 6.73711L41.6377 6.8116V15.5041C41.6377 16.6316 42.2731 17.4832 43.6681 17.6332V18.1366H37.5781V17.6352ZM43.5692 8.24207C43.5688 8.02806 43.6112 7.81609 43.6939 7.6183C43.7767 7.4205 43.8982 7.24079 44.0515 7.08947C44.2048 6.93814 44.3869 6.81817 44.5872 6.73646C44.7876 6.65475 45.0023 6.61289 45.2191 6.61329C45.4361 6.6125 45.6511 6.65406 45.8518 6.73561C46.0525 6.81716 46.2348 6.93707 46.3883 7.08845C46.5419 7.23983 46.6636 7.41969 46.7464 7.61767C46.8293 7.81565 46.8717 8.02785 46.8711 8.24207C46.8717 8.45598 46.8294 8.6679 46.7467 8.86563C46.664 9.06336 46.5426 9.243 46.3894 9.39426C46.2361 9.54552 46.0541 9.66541 45.8538 9.74702C45.6535 9.82864 45.4389 9.87037 45.2222 9.86984C45.0053 9.87064 44.7903 9.82911 44.5897 9.74762C44.3892 9.66614 44.2069 9.54632 44.0533 9.39505C43.8998 9.24377 43.7781 9.06404 43.6952 8.86617C43.6123 8.6683 43.5698 8.45619 43.5702 8.24207H43.5692Z" fill="white"/>
<path d="M54.4321 16.2581C55.7261 16.2581 56.8927 15.8816 57.8319 15.181L58.1623 15.5313C57.477 16.3829 55.9036 18.3872 53.2135 18.3872C50.0166 18.3872 47.7578 15.9823 47.7578 12.5757C47.7578 9.41885 49.8901 6.61328 53.188 6.61328C56.0555 6.61328 57.8064 8.66788 57.5525 11.6989H50.0675V11.8489C50.0675 14.4793 51.6155 16.2581 54.4321 16.2581ZM55.2479 10.6963C55.3243 8.89337 54.5626 7.61591 53.0656 7.61591C51.6196 7.61591 50.503 8.81787 50.1726 10.6963H55.2479Z" fill="white"/>
<path d="M59.4688 12.9269C59.4688 9.2949 62.0314 6.61416 65.2028 6.61416C66.1273 6.60119 67.0357 6.85369 67.8174 7.34097V4.86154C67.8174 3.73408 67.1821 2.88245 66.041 2.73146V2.22812C67.3831 1.92273 68.6984 1.51206 69.9742 1L70.1007 1.0755V14.4269C70.1007 15.5543 70.7349 16.406 71.8771 16.556V17.0593C70.5349 17.3639 69.2196 17.7743 67.9439 18.2864L67.8174 18.2119V16.107H67.6869C66.9731 17.6603 65.5046 18.3871 64.0586 18.3871C61.6 18.3861 59.4688 16.2318 59.4688 12.9269ZM64.9499 16.6093C65.9646 16.6093 67.0302 16.0587 67.8174 14.7309V8.38891C67.2331 7.88558 66.295 7.61276 65.4822 7.61276C63.6304 7.61276 61.7265 9.16605 61.7265 12.3219C61.7265 15.054 63.148 16.6073 64.9499 16.6073V16.6093Z" fill="white"/>
<path d="M80.8624 15.0041V4.73618C80.8624 3.48389 79.9232 2.50643 78.5781 2.35644V1.60547H91.5198V6.61462H91.0099C90.6805 3.93489 89.6648 2.60709 87.5591 2.60709H83.3995V9.52086L86.47 9.49569C88.1954 9.49569 89.1856 8.61889 89.312 6.99112H89.8219V13.0029H89.312C89.1856 11.3741 88.1903 10.4973 86.47 10.4973L83.3995 10.5225V14.7565C83.3995 16.2343 84.3387 17.3114 85.9366 17.3618V18.1379H78.5781V17.3557C79.9211 17.2329 80.8624 16.2313 80.8624 15.0041Z" fill="white"/>
<path d="M94.4951 15.5054V10.5959C94.4951 9.46841 93.8609 8.61677 92.7188 8.46678V7.96344C94.061 7.65897 95.3762 7.24862 96.6519 6.73633L96.7794 6.81082V15.5033C96.7794 16.6308 97.4137 17.4825 98.5558 17.6324V18.1358H92.7188V17.6324C93.8609 17.4845 94.4951 16.6328 94.4951 15.5054Z" fill="white"/>
<path d="M108.593 15.5053V10.9964C108.593 9.3183 107.857 8.39116 106.563 8.39116C105.446 8.39116 104.532 9.11798 103.772 10.2696V15.5042C103.772 16.6317 104.406 17.4833 105.294 17.6333V18.1367H99.7109V17.6333C100.853 17.4833 101.487 16.6267 101.487 15.5042V10.5947C101.487 9.46729 100.853 8.61566 99.7109 8.46567V7.96234C101.053 7.65771 102.368 7.24735 103.644 6.73521L103.772 6.8097V8.88947H103.898C104.735 7.21136 106.232 6.60938 107.527 6.60938C109.506 6.60938 110.876 8.18782 110.876 10.4176V15.5022C110.876 16.7545 111.333 17.281 112.653 17.6313V18.1347H107.07V17.6313C108.164 17.284 108.593 16.7575 108.593 15.5053Z" fill="white"/>
<path d="M113.836 15.4298C113.836 13.801 115.004 12.7491 117.542 11.9971L120.231 11.1918V10.9411C120.231 9.1875 119.445 8.33587 117.871 8.33587C116.603 8.33587 115.587 8.86235 114.496 9.81465L114.166 9.46332C114.852 8.61169 116.501 6.60742 118.988 6.60742C121.119 6.60742 122.515 8.08622 122.515 10.4156V16.2019C122.515 16.7526 122.794 17.0284 123.149 17.0284C123.496 17.016 123.831 16.9029 124.113 16.7032L124.419 17.0787C123.705 17.8841 122.947 18.331 122.034 18.331C121.145 18.331 120.232 17.88 120.232 16.4023V16.1003H120.105C119.392 17.6284 118.201 18.3804 116.832 18.3804C115.004 18.3854 113.836 17.0828 113.836 15.4298ZM117.639 16.5311C118.476 16.5311 119.491 15.9553 120.227 14.7282V12.1209L118.4 12.6967C116.598 13.2735 116.116 14.1252 116.116 14.9517C116.12 15.9301 116.805 16.5311 117.639 16.5311Z" fill="white"/>
<path d="M134.32 15.5061V10.9973C134.32 9.31918 133.583 8.39205 132.289 8.39205C131.167 8.39205 130.259 9.11886 129.498 10.2705V15.5051C129.498 16.6326 130.132 17.4842 131.021 17.6342V18.1376H125.438V17.6342C126.58 17.4842 127.214 16.6276 127.214 15.5051V10.5956C127.214 9.46817 126.58 8.61654 125.438 8.46655V7.96322C126.78 7.65973 128.095 7.25038 129.371 6.73911L129.498 6.81361V8.89338H129.625C130.462 7.21527 131.96 6.61328 133.254 6.61328C135.233 6.61328 136.603 8.19172 136.603 10.4215V15.5061C136.603 16.7584 137.06 17.2849 138.379 17.6352V18.1386H132.797V17.6352C133.888 17.2849 134.32 16.7584 134.32 15.5061Z" fill="white"/>
<path d="M145.386 6.61328C147.442 6.61328 148.762 7.39043 148.762 8.71822C148.762 8.93214 148.72 9.144 148.637 9.34168C148.554 9.53935 148.432 9.71895 148.279 9.87016C148.126 10.0214 147.944 10.1413 147.743 10.2229C147.543 10.3046 147.329 10.3464 147.112 10.346C146.046 10.346 145.463 9.51952 145.463 8.71822C145.461 8.52343 145.498 8.33016 145.572 8.1496C145.646 7.96903 145.755 7.80475 145.894 7.66625C145.671 7.60886 145.44 7.58344 145.209 7.59075C143.078 7.59075 141.707 9.51951 141.707 11.9194C141.707 14.575 143.382 16.248 146.072 16.248C147.366 16.248 148.533 15.8716 149.473 15.1709L149.802 15.5212C149.117 16.3729 147.543 18.3771 144.854 18.3771C141.656 18.3771 139.398 15.9722 139.398 12.5657C139.398 9.14403 141.859 6.61328 145.386 6.61328Z" fill="white"/>
<path d="M157.384 16.2581C158.678 16.2581 159.846 15.8816 160.785 15.181L161.114 15.5313C160.429 16.3829 158.856 18.3872 156.167 18.3872C152.969 18.3872 150.711 15.9823 150.711 12.5757C150.711 9.41885 152.842 6.61328 156.141 6.61328C159.009 6.61328 160.76 8.66788 160.506 11.6989H153.02V11.8489C153.02 14.4793 154.568 16.2581 157.384 16.2581ZM158.2 10.6963C158.276 8.89337 157.516 7.61591 156.018 7.61591C154.572 7.61591 153.455 8.81787 153.126 10.6963H158.2Z" fill="white"/>
<path d="M96.3894 1.12252C96.1889 1.04098 95.9741 0.999344 95.7573 1.00001C95.5407 0.999743 95.3262 1.04166 95.1261 1.12338C94.926 1.2051 94.7442 1.32501 94.5911 1.47623C94.438 1.62745 94.3166 1.80703 94.234 2.00463C94.1513 2.20224 94.109 2.41398 94.1094 2.62777C94.109 2.84178 94.1514 3.05376 94.2342 3.25156C94.3169 3.44935 94.4384 3.62907 94.5917 3.7804C94.745 3.93172 94.9271 4.05168 95.1274 4.13339C95.3278 4.21511 95.5425 4.25697 95.7593 4.25657C95.976 4.25684 96.1907 4.21487 96.3909 4.1331C96.5912 4.05133 96.7731 3.93134 96.9263 3.78003C97.0794 3.62872 97.2009 3.44906 97.2836 3.25133C97.3663 3.05361 97.4087 2.8417 97.4083 2.62777C97.4087 2.41373 97.3662 2.20172 97.2834 2.00392C97.2005 1.80612 97.0789 1.62643 96.9255 1.47517C96.7721 1.32392 96.5899 1.20407 96.3894 1.12252Z" fill="white"/>
<path d="M7.67426 16.2581C8.96832 16.2581 10.1349 15.8816 11.0741 15.181L11.4035 15.5313C10.7192 16.3829 9.14576 18.3872 6.45566 18.3872C3.25874 18.3872 1 15.9823 1 12.5757C1 9.41885 3.13127 6.61328 6.43016 6.61328C9.2977 6.61328 11.0486 8.66788 10.7947 11.6989H3.30871V11.8489C3.30871 14.4793 4.85669 16.2581 7.67426 16.2581ZM8.49006 10.6963C8.56654 8.89337 7.80479 7.61591 6.3078 7.61591C4.86077 7.61591 3.74516 8.81787 3.41477 10.6963H8.49006Z" stroke="white" stroke-width="0.4" mask="url(#path-1-outside-1_507_812)"/>
<path d="M18.4255 6.61328C20.4813 6.61328 21.8008 7.39043 21.8008 8.71822C21.8011 8.93205 21.7586 9.14384 21.6759 9.34145C21.5931 9.53906 21.4716 9.7186 21.3185 9.86981C21.1653 10.021 20.9834 10.1409 20.7832 10.2226C20.5831 10.3043 20.3685 10.3462 20.1519 10.346C19.0852 10.346 18.5019 9.51952 18.5019 8.71822C18.4999 8.52343 18.5369 8.33016 18.6109 8.1496C18.685 7.96903 18.7945 7.80475 18.9333 7.66625C18.7096 7.60954 18.4788 7.5848 18.248 7.59276C16.1168 7.59276 14.7462 9.52153 14.7462 11.9214C14.7462 14.577 16.4217 16.2501 19.1107 16.2501C20.4048 16.2501 21.5724 15.8736 22.5116 15.1729L22.841 15.5233C22.1557 16.3749 20.5833 18.3792 17.8932 18.3792C14.6962 18.3792 12.4375 15.9742 12.4375 12.5677C12.4355 9.14403 14.8992 6.61328 18.4255 6.61328Z" stroke="white" stroke-width="0.4" mask="url(#path-1-outside-1_507_812)"/>
<path d="M25.1514 14.5793V10.5959C25.1514 9.46847 24.5171 8.61683 23.375 8.46684V7.96351C24.7172 7.65888 26.0324 7.24853 27.3082 6.73639L27.4346 6.81088V14.0005C27.4346 15.6786 28.1709 16.6057 29.4649 16.6057C30.5867 16.6057 31.4953 15.8789 32.256 14.7273V10.5939C32.256 9.46645 31.6217 8.61483 30.4796 8.46483V7.9615C31.8218 7.65703 33.1371 7.24667 34.4128 6.73438L34.5402 6.80887V14.4243C34.5402 15.5517 35.1745 16.4034 36.3166 16.5534V17.0567C34.9744 17.3612 33.6591 17.7715 32.3835 18.2838L32.256 18.2093V16.1044H32.1295C31.2923 17.7835 29.7943 18.3845 28.5003 18.3845C26.5209 18.3865 25.1514 16.8081 25.1514 14.5793Z" stroke="white" stroke-width="0.4" mask="url(#path-1-outside-1_507_812)"/>
<path d="M37.5781 17.6352C38.7202 17.4852 39.3545 16.6286 39.3545 15.5061V10.5967C39.3545 9.46919 38.7202 8.61755 37.5781 8.46756V7.96423C38.9203 7.6596 40.2356 7.24925 41.5113 6.73711L41.6377 6.8116V15.5041C41.6377 16.6316 42.2731 17.4832 43.6681 17.6332V18.1366H37.5781V17.6352ZM43.5692 8.24207C43.5688 8.02806 43.6112 7.81609 43.6939 7.6183C43.7767 7.4205 43.8982 7.24079 44.0515 7.08947C44.2048 6.93814 44.3869 6.81817 44.5872 6.73646C44.7876 6.65475 45.0023 6.61289 45.2191 6.61329C45.4361 6.6125 45.6511 6.65406 45.8518 6.73561C46.0525 6.81716 46.2348 6.93707 46.3883 7.08845C46.5419 7.23983 46.6636 7.41969 46.7464 7.61767C46.8293 7.81565 46.8717 8.02785 46.8711 8.24207C46.8717 8.45598 46.8294 8.6679 46.7467 8.86563C46.664 9.06336 46.5426 9.243 46.3894 9.39426C46.2361 9.54552 46.0541 9.66541 45.8538 9.74702C45.6535 9.82864 45.4389 9.87037 45.2222 9.86984C45.0053 9.87064 44.7903 9.82911 44.5897 9.74762C44.3892 9.66614 44.2069 9.54632 44.0533 9.39505C43.8998 9.24377 43.7781 9.06404 43.6952 8.86617C43.6123 8.6683 43.5698 8.45619 43.5702 8.24207H43.5692Z" stroke="white" stroke-width="0.4" mask="url(#path-1-outside-1_507_812)"/>
<path d="M54.4321 16.2581C55.7261 16.2581 56.8927 15.8816 57.8319 15.181L58.1623 15.5313C57.477 16.3829 55.9036 18.3872 53.2135 18.3872C50.0166 18.3872 47.7578 15.9823 47.7578 12.5757C47.7578 9.41885 49.8901 6.61328 53.188 6.61328C56.0555 6.61328 57.8064 8.66788 57.5525 11.6989H50.0675V11.8489C50.0675 14.4793 51.6155 16.2581 54.4321 16.2581ZM55.2479 10.6963C55.3243 8.89337 54.5626 7.61591 53.0656 7.61591C51.6196 7.61591 50.503 8.81787 50.1726 10.6963H55.2479Z" stroke="white" stroke-width="0.4" mask="url(#path-1-outside-1_507_812)"/>
<path d="M59.4688 12.9269C59.4688 9.2949 62.0314 6.61416 65.2028 6.61416C66.1273 6.60119 67.0357 6.85369 67.8174 7.34097V4.86154C67.8174 3.73408 67.1821 2.88245 66.041 2.73146V2.22812C67.3831 1.92273 68.6984 1.51206 69.9742 1L70.1007 1.0755V14.4269C70.1007 15.5543 70.7349 16.406 71.8771 16.556V17.0593C70.5349 17.3639 69.2196 17.7743 67.9439 18.2864L67.8174 18.2119V16.107H67.6869C66.9731 17.6603 65.5046 18.3871 64.0586 18.3871C61.6 18.3861 59.4688 16.2318 59.4688 12.9269ZM64.9499 16.6093C65.9646 16.6093 67.0302 16.0587 67.8174 14.7309V8.38891C67.2331 7.88558 66.295 7.61276 65.4822 7.61276C63.6304 7.61276 61.7265 9.16605 61.7265 12.3219C61.7265 15.054 63.148 16.6073 64.9499 16.6073V16.6093Z" stroke="white" stroke-width="0.4" mask="url(#path-1-outside-1_507_812)"/>
<path d="M80.8624 15.0041V4.73618C80.8624 3.48389 79.9232 2.50643 78.5781 2.35644V1.60547H91.5198V6.61462H91.0099C90.6805 3.93489 89.6648 2.60709 87.5591 2.60709H83.3995V9.52086L86.47 9.49569C88.1954 9.49569 89.1856 8.61889 89.312 6.99112H89.8219V13.0029H89.312C89.1856 11.3741 88.1903 10.4973 86.47 10.4973L83.3995 10.5225V14.7565C83.3995 16.2343 84.3387 17.3114 85.9366 17.3618V18.1379H78.5781V17.3557C79.9211 17.2329 80.8624 16.2313 80.8624 15.0041Z" stroke="white" stroke-width="0.4" mask="url(#path-1-outside-1_507_812)"/>
<path d="M94.4951 15.5054V10.5959C94.4951 9.46841 93.8609 8.61677 92.7188 8.46678V7.96344C94.061 7.65897 95.3762 7.24862 96.6519 6.73633L96.7794 6.81082V15.5033C96.7794 16.6308 97.4137 17.4825 98.5558 17.6324V18.1358H92.7188V17.6324C93.8609 17.4845 94.4951 16.6328 94.4951 15.5054Z" stroke="white" stroke-width="0.4" mask="url(#path-1-outside-1_507_812)"/>
<path d="M108.593 15.5053V10.9964C108.593 9.3183 107.857 8.39116 106.563 8.39116C105.446 8.39116 104.532 9.11798 103.772 10.2696V15.5042C103.772 16.6317 104.406 17.4833 105.294 17.6333V18.1367H99.7109V17.6333C100.853 17.4833 101.487 16.6267 101.487 15.5042V10.5947C101.487 9.46729 100.853 8.61566 99.7109 8.46567V7.96234C101.053 7.65771 102.368 7.24735 103.644 6.73521L103.772 6.8097V8.88947H103.898C104.735 7.21136 106.232 6.60938 107.527 6.60938C109.506 6.60938 110.876 8.18782 110.876 10.4176V15.5022C110.876 16.7545 111.333 17.281 112.653 17.6313V18.1347H107.07V17.6313C108.164 17.284 108.593 16.7575 108.593 15.5053Z" stroke="white" stroke-width="0.4" mask="url(#path-1-outside-1_507_812)"/>
<path d="M113.836 15.4298C113.836 13.801 115.004 12.7491 117.542 11.9971L120.231 11.1918V10.9411C120.231 9.1875 119.445 8.33587 117.871 8.33587C116.603 8.33587 115.587 8.86235 114.496 9.81465L114.166 9.46332C114.852 8.61169 116.501 6.60742 118.988 6.60742C121.119 6.60742 122.515 8.08622 122.515 10.4156V16.2019C122.515 16.7526 122.794 17.0284 123.149 17.0284C123.496 17.016 123.831 16.9029 124.113 16.7032L124.419 17.0787C123.705 17.8841 122.947 18.331 122.034 18.331C121.145 18.331 120.232 17.88 120.232 16.4023V16.1003H120.105C119.392 17.6284 118.201 18.3804 116.832 18.3804C115.004 18.3854 113.836 17.0828 113.836 15.4298ZM117.639 16.5311C118.476 16.5311 119.491 15.9553 120.227 14.7282V12.1209L118.4 12.6967C116.598 13.2735 116.116 14.1252 116.116 14.9517C116.12 15.9301 116.805 16.5311 117.639 16.5311Z" stroke="white" stroke-width="0.4" mask="url(#path-1-outside-1_507_812)"/>
<path d="M134.32 15.5061V10.9973C134.32 9.31918 133.583 8.39205 132.289 8.39205C131.167 8.39205 130.259 9.11886 129.498 10.2705V15.5051C129.498 16.6326 130.132 17.4842 131.021 17.6342V18.1376H125.438V17.6342C126.58 17.4842 127.214 16.6276 127.214 15.5051V10.5956C127.214 9.46817 126.58 8.61654 125.438 8.46655V7.96322C126.78 7.65973 128.095 7.25038 129.371 6.73911L129.498 6.81361V8.89338H129.625C130.462 7.21527 131.96 6.61328 133.254 6.61328C135.233 6.61328 136.603 8.19172 136.603 10.4215V15.5061C136.603 16.7584 137.06 17.2849 138.379 17.6352V18.1386H132.797V17.6352C133.888 17.2849 134.32 16.7584 134.32 15.5061Z" stroke="white" stroke-width="0.4" mask="url(#path-1-outside-1_507_812)"/>
<path d="M145.386 6.61328C147.442 6.61328 148.762 7.39043 148.762 8.71822C148.762 8.93214 148.72 9.144 148.637 9.34168C148.554 9.53935 148.432 9.71895 148.279 9.87016C148.126 10.0214 147.944 10.1413 147.743 10.2229C147.543 10.3046 147.329 10.3464 147.112 10.346C146.046 10.346 145.463 9.51952 145.463 8.71822C145.461 8.52343 145.498 8.33016 145.572 8.1496C145.646 7.96903 145.755 7.80475 145.894 7.66625C145.671 7.60886 145.44 7.58344 145.209 7.59075C143.078 7.59075 141.707 9.51951 141.707 11.9194C141.707 14.575 143.382 16.248 146.072 16.248C147.366 16.248 148.533 15.8716 149.473 15.1709L149.802 15.5212C149.117 16.3729 147.543 18.3771 144.854 18.3771C141.656 18.3771 139.398 15.9722 139.398 12.5657C139.398 9.14403 141.859 6.61328 145.386 6.61328Z" stroke="white" stroke-width="0.4" mask="url(#path-1-outside-1_507_812)"/>
<path d="M157.384 16.2581C158.678 16.2581 159.846 15.8816 160.785 15.181L161.114 15.5313C160.429 16.3829 158.856 18.3872 156.167 18.3872C152.969 18.3872 150.711 15.9823 150.711 12.5757C150.711 9.41885 152.842 6.61328 156.141 6.61328C159.009 6.61328 160.76 8.66788 160.506 11.6989H153.02V11.8489C153.02 14.4793 154.568 16.2581 157.384 16.2581ZM158.2 10.6963C158.276 8.89337 157.516 7.61591 156.018 7.61591C154.572 7.61591 153.455 8.81787 153.126 10.6963H158.2Z" stroke="white" stroke-width="0.4" mask="url(#path-1-outside-1_507_812)"/>
<path d="M96.3894 1.12252C96.1889 1.04098 95.9741 0.999344 95.7573 1.00001C95.5407 0.999743 95.3262 1.04166 95.1261 1.12338C94.926 1.2051 94.7442 1.32501 94.5911 1.47623C94.438 1.62745 94.3166 1.80703 94.234 2.00463C94.1513 2.20224 94.109 2.41398 94.1094 2.62777C94.109 2.84178 94.1514 3.05376 94.2342 3.25156C94.3169 3.44935 94.4384 3.62907 94.5917 3.7804C94.745 3.93172 94.9271 4.05168 95.1274 4.13339C95.3278 4.21511 95.5425 4.25697 95.7593 4.25657C95.976 4.25684 96.1907 4.21487 96.3909 4.1331C96.5912 4.05133 96.7731 3.93134 96.9263 3.78003C97.0794 3.62872 97.2009 3.44906 97.2836 3.25133C97.3663 3.05361 97.4087 2.8417 97.4083 2.62777C97.4087 2.41373 97.3662 2.20172 97.2834 2.00392C97.2005 1.80612 97.0789 1.62643 96.9255 1.47517C96.7721 1.32392 96.5899 1.20407 96.3894 1.12252Z" stroke="white" stroke-width="0.4" mask="url(#path-1-outside-1_507_812)"/>
</svg>
