<svg width="34" height="34" viewBox="0 0 34 34" fill="none" xmlns="http://www.w3.org/2000/svg">
<path fill-rule="evenodd" clip-rule="evenodd" d="M12.6131 28C22.1468 27.7508 27.3532 19.4302 27.3532 12.1998C27.3532 11.9588 27.3482 11.719 27.3379 11.481C28.38 10.6979 29.285 9.7192 30 8.60542C29.0432 9.04716 28.0151 9.34565 26.9359 9.47989C28.0373 8.79241 28.8834 7.70392 29.2817 6.40657C28.2507 7.04302 27.1089 7.50535 25.8938 7.75453C24.9201 6.67505 23.5337 6 21.9994 6C19.0527 6 16.6637 8.48747 16.6637 11.5556C16.6637 11.991 16.7111 12.4147 16.8021 12.8213C12.3676 12.5897 8.43651 10.378 5.80492 7.01729C5.34566 7.83773 5.08246 8.79198 5.08246 9.81013C5.08246 11.7371 6.02446 13.4376 7.45621 14.4338C6.58134 14.4051 5.75879 14.1551 5.03921 13.739C5.0388 13.7622 5.0388 13.7858 5.0388 13.809C5.0388 16.5006 6.87791 18.7457 9.31879 19.2561C8.87106 19.383 8.39985 19.4512 7.913 19.4512C7.56948 19.4512 7.23502 19.4161 6.90921 19.3513C7.58842 21.5583 9.55851 23.1644 11.8935 23.2095C10.0672 24.6994 7.76677 25.5876 5.2674 25.5876C4.83862 25.5876 4.4156 25.5614 4 25.5104V25.5134C6.27819 27.0329 8.96909 27.9387 11.861 28H12.6131Z" fill="#022336"/>
</svg>
